<?xml version="1.0"?>
<svg xmlns="http://www.w3.org/2000/svg" xmlns:xlink="http://www.w3.org/1999/xlink" viewBox="0 0 757.24 309.33" width="757.24" height="309.33"><defs><linearGradient id="linear-gradient" x1="191.64" y1="313.51" x2="193.38" y2="313.51" gradientTransform="matrix(306.98, 0, 0, -306.98, -58717.72, 96509.13)" gradientUnits="userSpaceOnUse"><stop offset="0"/><stop offset="0.02" stop-color="#1f1f1f"/><stop offset="0.05" stop-color="#4e4e4e"/><stop offset="0.08" stop-color="#787878"/><stop offset="0.12" stop-color="#9d9d9d"/><stop offset="0.16" stop-color="#bbb"/><stop offset="0.2" stop-color="#d4d4d4"/><stop offset="0.25" stop-color="#e7e7e7"/><stop offset="0.3" stop-color="#f5f5f5"/><stop offset="0.37" stop-color="#fdfdfd"/><stop offset="0.5" stop-color="#fff"/><stop offset="0.63" stop-color="#fdfdfd"/><stop offset="0.7" stop-color="#f5f5f5"/><stop offset="0.75" stop-color="#e7e7e7"/><stop offset="0.8" stop-color="#d4d4d4"/><stop offset="0.84" stop-color="#bbb"/><stop offset="0.88" stop-color="#9d9d9d"/><stop offset="0.92" stop-color="#787878"/><stop offset="0.95" stop-color="#4e4e4e"/><stop offset="0.98" stop-color="#1f1f1f"/><stop offset="1"/></linearGradient><clipPath id="clip-path"><rect x="111.83" y="267.05" width="533.58" height="2.4" fill="none"/></clipPath><mask id="mask" x="111.83" y="267.05" width="533.58" height="2.4" maskUnits="userSpaceOnUse"><rect x="111.83" y="267.05" width="533.58" height="2.4" fill="url(#linear-gradient)"/></mask><linearGradient id="linear-gradient-2" x1="191.64" y1="313.51" x2="193.38" y2="313.51" gradientTransform="matrix(306.98, 0, 0, -306.98, -58717.72, 96509.13)" gradientUnits="userSpaceOnUse"><stop offset="0" stop-color="#36323d"/><stop offset="0.5" stop-color="#36323d"/><stop offset="1" stop-color="#36323d"/></linearGradient></defs><title>Fichier 1</title><g id="Calque_2" data-name="Calque 2"><g id="Layer_1" data-name="Layer 1"><g clip-path="url(#clip-path)"><g mask="url(#mask)"><rect x="111.83" y="267.05" width="533.58" height="2.4" fill="url(#linear-gradient-2)"/></g></g><path d="M384.9,298.75a10.19,10.19,0,0,0,10.21,10,10,10,0,0,0,5.84-1.92v-2.7a8.62,8.62,0,0,1-5.92,2.61,8.1,8.1,0,0,1-.06-16.19,8.45,8.45,0,0,1,6,2.58v-2.69a9.5,9.5,0,0,0-5.84-1.92,10.24,10.24,0,0,0-10.21,10.19" fill="#36333d"/><path d="M416.73,288.56a10.12,10.12,0,1,0,10.19,10.15,10.21,10.21,0,0,0-10.19-10.15m0,18.22a8.1,8.1,0,1,1,8-8.1,8.1,8.1,0,0,1-8,8.1" fill="#36333d"/><path d="M476.39,298.75a10.18,10.18,0,0,0,10.19,10,10,10,0,0,0,5.84-1.92v-2.7a8.6,8.6,0,0,1-5.92,2.61,8.1,8.1,0,0,1,0-16.19,8.42,8.42,0,0,1,6,2.58v-2.69a9.48,9.48,0,0,0-5.84-1.92,10.22,10.22,0,0,0-10.19,10.19" fill="#36333d"/><polygon points="435.3 288.89 433.13 288.89 433.13 308.45 440.69 308.45 440.69 306.43 435.3 306.43 435.3 288.89" fill="#36333d"/><polygon points="449.46 288.89 447.28 288.89 447.28 308.45 454.85 308.45 454.85 306.43 449.46 306.43 449.46 288.89" fill="#36333d"/><polygon points="461.02 308.45 471.15 308.45 471.15 306.43 463.19 306.43 463.19 298.74 470.93 298.74 470.93 296.72 463.19 296.72 463.19 290.93 471.15 290.93 471.15 288.89 461.02 288.89 461.02 308.45" fill="#36333d"/><polygon points="497.56 290.93 502.28 290.93 502.28 308.45 504.46 308.45 504.46 290.93 509.24 290.93 509.24 288.89 497.56 288.89 497.56 290.93" fill="#36333d"/><rect x="514.39" y="288.89" width="2.18" height="19.56" fill="#36333d"/><path d="M532.64,288.56a10.12,10.12,0,1,0,10.21,10.15,10.21,10.21,0,0,0-10.21-10.15m0,18.22a8.1,8.1,0,1,1,8-8.1,8.08,8.08,0,0,1-8,8.1" fill="#36333d"/><polygon points="563.99 304.05 548.73 288.05 548.73 308.45 550.92 308.45 550.92 293.37 566.17 309.33 566.17 288.89 563.99 288.89 563.99 304.05" fill="#36333d"/><path d="M570.09,290.38l-.26-.09c-.22-.09-.5-.24-.5-.53a.57.57,0,0,1,.6-.5.58.58,0,0,1,.57.35l.36-.23a1,1,0,0,0-.92-.53,1,1,0,0,0-1.06.91c0,.51.37.75.79.92l.23.1c.32.13.63.29.63.68a.68.68,0,0,1-.66.71.66.66,0,0,1-.69-.68l-.46.09a1.13,1.13,0,0,0,2.26-.12c0-.59-.39-.87-.89-1.08" fill="#36333d"/><polygon points="574.39 288.77 573.15 291.59 571.93 288.77 571.19 292.52 571.65 292.52 572.07 290.14 572.08 290.14 573.15 292.58 574.23 290.14 574.24 290.14 574.64 292.52 575.11 292.52 574.39 288.77" fill="#36333d"/><path d="M217.42,300.53c0,1.54.08,3.26-1,4.49a5.11,5.11,0,0,1-3.83,1.76,5,5,0,0,1-3.94-1.88c-.92-1.24-.87-2.91-.87-4.37V288.89h-2.17v12.24c0,2.24.2,4,1.91,5.66a7.32,7.32,0,0,0,5.07,2,7.16,7.16,0,0,0,5.26-2.23c1.56-1.61,1.71-3.29,1.71-5.43V288.89h-2.18Z" fill="#36333d"/><polygon points="225.47 290.91 230.2 290.91 230.2 308.45 232.37 308.45 232.37 290.91 237.15 290.91 237.15 288.89 225.47 288.89 225.47 290.91" fill="#36333d"/><path d="M251.65,288.56a10.12,10.12,0,1,0,10.19,10.15,10.2,10.2,0,0,0-10.19-10.15m0,18.22a8.1,8.1,0,1,1,8-8.1,8.09,8.09,0,0,1-8,8.1" fill="#36333d"/><path d="M342.19,289.92a8.3,8.3,0,0,0-4.85-1h-3.22v19.56h2.18v-8.56h1.58a7.08,7.08,0,0,0,4.65-1.29,5.55,5.55,0,0,0,1.86-4.22,5.41,5.41,0,0,0-2.2-4.46m-4.44,7.95H336.3v-7h.8c2.54,0,5.11.24,5.11,3.43,0,2.8-2,3.53-4.46,3.53" fill="#36333d"/><polygon points="362.88 297.89 352.86 297.89 352.86 288.89 350.69 288.89 350.69 308.45 352.86 308.45 352.86 299.92 362.88 299.92 362.88 308.45 365.06 308.45 365.06 288.89 362.88 288.89 362.88 297.89" fill="#36333d"/><path d="M301.28,298.6a5.53,5.53,0,0,0,1.87-4.22,5.39,5.39,0,0,0-2.2-4.45,8.24,8.24,0,0,0-4.86-1h-3.21v19.56h2.18V290.91h.8c2.54,0,5.11.24,5.11,3.43,0,2.76-2,3.51-4.34,3.53l6,10.58h2.59l-5.33-9.05a5.39,5.39,0,0,0,1.39-.8" fill="#36333d"/><path d="M278.29,298.65a10,10,0,0,1,2.06,2h3.75a5.56,5.56,0,0,1-1.87,4.11,7.44,7.44,0,0,1-5.11,2,8.25,8.25,0,0,1-5.55-2.49,7.86,7.86,0,0,1-2.27-5.08c0-.14,0-.3,0-.46a8.3,8.3,0,0,1,.18-1.72,8.08,8.08,0,0,1,7.8-6.44c2.89,0,4.83,1.36,6.46,3.68l1.59-1.48a9.67,9.67,0,0,0-8-4.23A10.18,10.18,0,0,0,267.14,298c0,.25,0,.47,0,.71a10.51,10.51,0,0,0,.14,1.69,10,10,0,0,0,15.18,6.84,9.58,9.58,0,0,0,2-1.73c1.78-2.07,2.07-4.25,2-6.87Z" fill="#36333d"/><path d="M186.79,299.24c-.67-.13-1.35-.22-2-.3a10.34,10.34,0,0,1,1.23,2.15l-3.24,7.36h2.39l2.95-6.88a19.11,19.11,0,0,1,8.33,4.91,18.28,18.28,0,0,1,1.74,2h2.42L191.75,288Zm2.06.5,2.9-6.69,4.32,10.49a20.84,20.84,0,0,0-7.22-3.8" fill="#36333d"/><path d="M314.65,299.24c-.67-.13-1.36-.22-2-.3a10.34,10.34,0,0,1,1.23,2.15v0l-3.24,7.33H313l2.95-6.88a18.94,18.94,0,0,1,8.33,4.91,16.34,16.34,0,0,1,1.74,2h2.42L319.62,288Zm2.06.5,2.85-6.69L324,303.54a21.2,21.2,0,0,0-7.24-3.8" fill="#36333d"/><path d="M22.75,111.52c-2-6.27-6.77-11.93-14.29-11.94A2.77,2.77,0,0,0,6.15,104c1.41,1.79,3.48.65,5.39,1.16-1.72,1-12.32,2.83-11.49,6.44a1.7,1.7,0,0,0,.43,1.31,2.8,2.8,0,0,0,1.2.79h0a5,5,0,0,0,2.92-.16c.51-.16,2.71-1.27,3.09-.7.7,1.09-.94,1.52-1.75,1.85-1.5.61-3.07,1.16-4,2.59a1.46,1.46,0,0,0-.2,1.33,2,2,0,0,0,.43,2.06,2.53,2.53,0,0,0,3,.19,17.62,17.62,0,0,0,2.54-1.58c1.31-.93,2.64-2.14,4.16-1a1.59,1.59,0,0,0,.72.31,2.16,2.16,0,0,1-.65,1c-1.6.34-4.35.94-5.12,2.53C6,124,6,126,8,127.08c1.72,1,4.05-.11,5.12-1.54.6-.82,1-2,1.87-2.61l.13-.08c5.2-.46,10,3.54,15.31,2.91-4.43-3.4-6-9.18-7.68-14.24" fill="#231f20"/><path d="M70,139.8c-4.64,2.44-8.62,6.1-14,7-5.56.94-11.39-.1-16.62-2-2.54-.94-5-2.25-7.67-2.68a5.77,5.77,0,0,0-1-.61l-.22,0c-.2,0-.4,0-.61-.05l-.76-.24a6.07,6.07,0,0,0-4.15.41,6,6,0,0,0-1.54.16c-1.88.44-4.66,3.34-3.12,5.35a2.32,2.32,0,0,0,2.23.9,2.73,2.73,0,0,0,.76.34,7,7,0,0,0,1.81-1.4,1.59,1.59,0,0,1,2.65.45,3.52,3.52,0,0,1-1.14,2.75,11,11,0,0,0-1.36,1.5c-.13.08-.25.17-.37.26s-.09.3-.14.44,0,0,0,0a1.49,1.49,0,0,0-.95,1.09,3.62,3.62,0,0,0,.35,2.68,2.62,2.62,0,0,0,2.71,1.08,3.16,3.16,0,0,0,2.26-1.74,14.12,14.12,0,0,1,1.54-2.34c.7-.65,2-1.16,2.41-.15a1.63,1.63,0,0,1,.09.48,1.69,1.69,0,0,1-.51,1.21,1.21,1.21,0,0,1-.25.21l-.19.24-.23.2a.26.26,0,0,0-.05.09,10.28,10.28,0,0,1-.74,1.25,10.58,10.58,0,0,0-.78,1.37c-4,3.74,2,9.91,5.22,5.1,1.42-2.15-.11-4.79,1.21-7.16.44-.79,1.24-1.68,2.2-1s-.35,2.52-.44,3.53c-.18,2.1-.61,4.53,1,6.26a3.19,3.19,0,0,0,4.79-.32c1.62-2.19-.95-3.82-.41-5.89-.1-3.3,3.49-3.12,5.4-1.75,5,3.6,11.63.64,15.33-3.6s4.92-10.48,9.06-14.29a19.92,19.92,0,0,0-3.8.87" fill="#231f20"/><path d="M177.33,115.77C160.91,98.9,122.4,91.18,99.12,93.67a176.2,176.2,0,0,0-41.38,9.42c-11.77,6.38-14.54-10.62-2-11.36,5.34-.31,44.56-4.13,44.34-17.89A63.24,63.24,0,0,0,85,67.67c-7.2-1.1-14.69-1.8-16.54-1.88-6.84-.31-24.27.29-31,2.32C44.36,80.78,25.34,84.54,23.56,98.3a28.12,28.12,0,0,0,11,25.56c8,5.79,7.39,20,22.26,17.25,4.88-.89,11.89-6.07,13.74-7.46a6.34,6.34,0,0,1,1.6-.83c5.18,1.41,10.88,1.19,16.08.31,6.2-1,13-3.79,17.72-8.21a29.31,29.31,0,0,0,13.39,10.62c-5.71,4-15.13,2.3-22.53,2.52a18.59,18.59,0,0,0-7,.32,1.47,1.47,0,0,0-1.25.27c-.81.57-2.14,1.6-2,2.79a3.5,3.5,0,0,0-.08,1.47,3,3,0,0,0,3.82,2.69,21.82,21.82,0,0,0,2.11-.71,7.7,7.7,0,0,0,1.19.49c-.68,2.6-7.41.71-5.33,6.22,1.29,3.42,5.5,1.86,6.64-.7a12.59,12.59,0,0,1,1.31-.89,2.54,2.54,0,0,1,.92.7c-.09,2.29-2.57,4-2.66,6.21A3.06,3.06,0,0,0,96,160.09,3,3,0,0,0,99.84,159a4,4,0,0,0,.46-1.48,15.73,15.73,0,0,0,1.27-3.15l.06-.22.15-.14c2.36,1.7-1.4,3.78-.13,6.31.73,2.83,4.4,3.72,6,.42.79-1.64.24-3.55.21-5.32a6.14,6.14,0,0,1,.31-1.69c2-8.07,34.79-7.8,25.23-23-.13-.2-12.4-8.85-8.88-11.47a7.68,7.68,0,0,1,1.83.53,18.66,18.66,0,0,0,6.67,3.75,16.24,16.24,0,0,0,2.64.62,14.85,14.85,0,0,0,3.83,1,31.48,31.48,0,0,0,12.28-1.33,14,14,0,0,1,4.74.72c19.19,6.92-16.64,16.38-18.33,17-23.83,8.82,1.55,34,5.64,18.63-5,3.9-8.86,1.12-9.22-2.38a1,1,0,0,0,.1-.32,17.81,17.81,0,0,0,.32-3.61c.07-.33.1-.1,0,1.57,3.65-9.6,15-4.49,22.29-3.28,20.49,3.39,30.5-20.46,20-36.37" fill="#231f20"/><path d="M115.19,74.41a45.57,45.57,0,0,0,7.27-1.85c.73-.31,1.46-.63,2.21-.91a14.53,14.53,0,0,1,9.35-.81c3.48,1,6.53,3.09,10,4.14,2.14.64,4.31,1.1,6.49,1.54h0a16,16,0,0,1,1.7-.15l-.9-.61C145,72.36,141,64.43,133.06,63.58c-9-1-16.9,7.41-25.83,8.7A10.76,10.76,0,0,0,111,74.15a2,2,0,0,1,.52.09c.1,0,.2.06.3.09a11.73,11.73,0,0,0,3,.12,1.61,1.61,0,0,1,.39,0" fill="#ee3124"/><path d="M110.4,84.63,111,85c.41.19.82.36,1.24.51a18.88,18.88,0,0,0,1.83.54,11.88,11.88,0,0,0,1.34,0c8.07.36,12.58-8.1,21.23-5.84L133.78,78c-5.05-4.46-10.16-.19-15.55,1.77-6.13,2.23-8.7-.8-13.74-2.48C106,80,107.76,83,110.4,84.63" fill="#ee3124"/><path d="M192.59,55.18a17.29,17.29,0,0,0-9.26,2c-4.82,2.41-9.21,5.56-14,8.06-6.66,3.49-15.42,7.14-21.94,2.57a28.67,28.67,0,0,0,6.06,5.28,19.94,19.94,0,0,0,8.61,3.11c5.3-.55,9.63-4.17,14-7.86,2.41-2.13,4.85-4.18,7.45-6.12,3.47-2.58,9.61-6.7,13.95-4.73a12.94,12.94,0,0,0-4.83-2.3" fill="#ee3124"/><path d="M177.87,47.21a28.65,28.65,0,0,0-5.67,3c-.94.92-1.84,1.94-2.75,2.94-2.25,3.21-5.31,5.77-9.2,5.75l-.42.41c1.16.31,2.37.68,3.58,1l1.69.18c1.35-.21,2.73-.57,4.07-.79a1.52,1.52,0,0,1,.56-.4A4.94,4.94,0,0,0,171.55,58l1.18-1.8c.73-1.46,1.23-3.1,1.89-4.46a9.07,9.07,0,0,1,3.76-4.26l.16-.24a5,5,0,0,0-.67,0" fill="#ee3124"/><path d="M187.12,72.41a9.28,9.28,0,0,0-8.91.61c-3.82,2.42-6.63,6.55-10.71,8.51,10.22,2.87,13.57-6.26,22.69-6.26a.5.5,0,0,1,0-.13,9,9,0,0,0-3-2.73" fill="#ee3124"/><path d="M105.1,51.82c-.66,2.74-3.74,4.39-6.74,5.42-.67.37-1.36.71-2.06,1a19.8,19.8,0,0,0,10.62-4.65q.26-.43.54-.84c8-26.49-88.12-14.89-74.85,4.55q4.17,3.66,9.62.84c-20.71-8.42,68.46-28.81,63.17-6.69-.1.12-.21.22-.3.34" fill="#231f20"/><path d="M18.89,20.42C19.51,32.56,30.37,39.59,34,46.77c.3-7.3-6.37-22.26-15.11-26.35" fill="#231f20"/><path d="M19.75,39.34c1.46-2.93,5.57-1.18,5.73,1.8a1.67,1.67,0,0,1,.5,0c1.29-5.41-10.06-5.93-10-3.48q.08,5.1,5.53,5.23c2.37-1.49-.84-2-1.78-3.6" fill="#231f20"/><path d="M32.38,35.53c-1.17-2-.31-5,2.38-4.76.93,1.63-.29,4.64,2.19,3.35q2.69-4.75-1.69-7.41c-2.83-1.79-6,5.92-3,9.14a1.7,1.7,0,0,1,.1-.32" fill="#231f20"/><path d="M105.19,42.35l.24.18.17.13c5.45-3,13.15-12.41,13.09-19.79-8.27,4.45-9.92,14.1-13.5,19.48" fill="#231f20"/><path d="M105,26.77c-2.48,1.23-3.11,3.19-1.91,5.88,1,.61,1.24.29,1.39-.32a1.36,1.36,0,0,1,.61-2.2l0,0h.3a1.2,1.2,0,0,1,.84.31c1.37.82,1.32,3.09,0,4.22a1.26,1.26,0,0,1,.24.51c3.57-1.51.23-9.24-1.46-8.37" fill="#231f20"/><path d="M111.85,38.84h.09A2.79,2.79,0,0,1,115.63,37a1.18,1.18,0,0,1,.86.89c.05.09.1.18.15.29l-.1.11a1.24,1.24,0,0,1-1.26,1.29,1.3,1.3,0,0,1-.46-.09c-.57.38-.81.76.11,1.46,3,.2,4.57-1.08,4.86-3.83s-7.46-2.3-7.94,1.77" fill="#231f20"/><path d="M53,0c-5.37,14.61,3.9,28.34,4.59,38.62C61.58,30.17,61.23,9.19,53,0" fill="#231f20"/><path d="M44.52,22.73c3.18-2.72,7.14,1.39,5.85,5a2.21,2.21,0,0,1,.56.31c4.23-5.74-8.88-12-10-9.11q-2.47,6,3.89,8.93c3.53-.56,0-2.73-.29-5.12" fill="#231f20"/><path d="M61.31,24.57c-.39-2.92,2.11-6,5.19-4.42.28,2.39-2.67,5.32.89,5.05q5.55-4.26,1.74-9.59c-2.44-3.52-10.09,4-8.1,9.28a2.07,2.07,0,0,1,.28-.32" fill="#231f20"/><path d="M85,36.3l.39.06.27.06c4.69-6.68,8.32-22.17,4-30.83C82.49,15.6,86.12,27.9,85,36.3" fill="#231f20"/><path d="M75.8,18.08q-3.33,4.29,1.14,8c1.46.17,1.62-.36,1.45-1.17A1.78,1.78,0,0,1,77.83,22a.07.07,0,0,0,0-.05l.19-.07.16-.1a1.57,1.57,0,0,1,1.16-.13c2.09.18,3.35,2.88,2.4,5a1.74,1.74,0,0,1,.58.46c3.33-3.83-5-11-6.53-9" fill="#231f20"/><path d="M90.8,28.33l.11-.07c-.41-2.19,1.33-4.36,3.25-4.33a1.57,1.57,0,0,1,1.53.54,3.75,3.75,0,0,1,.33.26,1.29,1.29,0,0,1,0,.19,1.61,1.61,0,0,1-.75,2.23,1.71,1.71,0,0,1-.59.17c-.45.77-.51,1.36,1,1.65q5.38-2.2,3.51-7.3c-1.26-3.6-10.11,1.6-8.33,6.66" fill="#231f20"/><path d="M730.11,214.92c0,.23.26.4,1.14.58,2.08.39,3.37.56,3.53,3.11.1,1.54.1,3.12.1,9.32s0,8.79-.26,10.59c-.41,2.77-1.5,3.3-4.35,3.78-1,.18-1.3.36-1.3.58s.47.44,1.09.44c1.4,0,3.52-.36,6.12-.36,9.59,0,16.24.14,18.26.27a1.27,1.27,0,0,0,1.24-.88c.16-.4,1.56-4.39,1.56-4.84,0-.22-.11-.83-.42-.83s-.52.22-1,1a9.72,9.72,0,0,1-1.51,2c-1.45,1.76-2.28,1.81-9.28,1.81-4.15,0-4-.14-5.29-1.15-.47-.39-.63-.88-.63-2.55v-8.17c0-.18.16-.66.89-.66,1.66,0,4.93.13,6.06.22,2,.17,2.5,1.19,2.86,2.59.26.83.52,1.1.83,1.1s.46-.27.46-.88c-.1-.92-.2-2.55-.2-3.78s.05-2.28.1-3.25c0-.66,0-1.06-.52-1.06-.25,0-.57.49-.67.92-.67,2.25-1.61,2.6-6.54,2.6h-2.85c-.21,0-.42-.31-.42-.75,0-2.9.06-9.23.21-9.89.11-.48.31-.83.63-.83,4.92,0,7.36,0,8.55.13,2.18.18,3.22.75,3.74,2.33.46,1.36.83,1.58.93,1.58a.82.82,0,0,0,.62-.75c0-1.14-.52-4.12-.52-4.44s-.41-.65-.62-.65a57.06,57.06,0,0,1-9.23.52h-6.22c-2,0-4.67-.13-5.66-.13s-1.45.09-1.45.35m-24.47.31a15.24,15.24,0,0,1,11.25,4.35,14.64,14.64,0,0,1,4.15,9.23c0,5.93-2.6,10.51-7.79,12.53a17.58,17.58,0,0,1-6.22,1.23,12.22,12.22,0,0,1-5.18-1.23,2.7,2.7,0,0,1-1.51-2.15,53.49,53.49,0,0,1-.57-9.24v-5.58c0-4.35.11-5.58.16-6.68.1-1.45.46-1.63.78-1.8a13.65,13.65,0,0,1,4.93-.66m.82-.92c-4,0-7.47.39-10.22.39h-3.52c-.83,0-1.25.18-1.25.49s.47.4,1.25.52c1.87.35,2.44.88,2.54,2.38.1,1.18.26,4.13.26,10.59,0,4.48,0,7.47,0,10.28-.06,2.38-.94,2.64-3.58,3.08-.78.13-1.19.22-1.19.53s.46.48,1.29.48,2.39-.09,4.1-.09c3,0,6.43.49,9.59.49a27.94,27.94,0,0,0,7.94-.93c6.74-1.93,12.5-7,12.5-14.28a13,13,0,0,0-6.8-11.12c-4-2.33-8.55-2.81-12.86-2.81m-44.4.66c0,.39.63.57,1.25.66,2.75.35,3.27,1.32,3.32,2.94s.06,3.69.06,9.85c0,3.82-.06,8.48-.21,10.67s-1.09,2.47-3.89,2.95c-.84.13-1.09.39-1.09.57s.41.49,1.19.49c1.34,0,3.84-.14,5.91-.14,3.06,0,10.95.14,16.5.14,1.29,0,1.71-.26,1.81-.44.26-.88,1.66-4.53,1.66-5.15s-.05-.87-.36-.87-.78.74-1,1.23c-1.24,2.15-2.49,3.16-4.2,3.38a54.74,54.74,0,0,1-9,0c-2.28-.18-2.7-.71-2.86-2.69-.1-1.36-.25-3-.25-7.51,0-9.8.15-12,.25-13.32s.88-1.71,2.91-2.1c.78-.14,1.09-.27,1.09-.58,0-.09-.21-.39-1.09-.39-1.66,0-3.79.08-6,.08-2.07,0-3.83-.08-4.92-.08-.68,0-1.05.13-1.05.35m-38.53-.05c0,.31.42.44,1.19.58,2.28.39,2.92,1.36,3,2.85.1,2,.3,7.52.36,11.87.05,6.81,1.61,9.27,4.61,11.34,2.49,1.67,6.74,2.19,9,2.19a16.53,16.53,0,0,0,7-1.49c5.14-2.9,5.91-7,6.33-13,.1-1.81.31-7.43.62-10.69.21-2.19.83-2.81,3-3.11.77-.14,1-.23,1-.53s-.77-.35-1.29-.35c-2.13,0-2.13.08-4.1.08-1.25,0-2.75-.08-4.62-.08-.88,0-1.45.08-1.45.43s.57.4,1.3.54c1.35.21,3.16.7,3.58,2.45a19.11,19.11,0,0,1,.31,4.57,69.51,69.51,0,0,1-.62,11.43c-1.2,6-4.57,7.43-9.81,7.43-1.7,0-5.18-.53-7.21-2.2-2.48-2.11-3.42-4.26-3.52-9.32-.11-4-.16-9.22,0-10.81.21-2.68.57-3.16,3.21-3.64.62-.14.94-.35.94-.58s-.37-.3-1-.3c-1.14,0-2.44.08-5.19.08-1.81,0-3.89-.17-5.39-.17-.93,0-1.25.17-1.25.39m-23.44.05a14.56,14.56,0,0,1,14.68,14.55c0,3.51-1.25,7.86-4.1,10.19a11.79,11.79,0,0,1-7.52,2.95,12.68,12.68,0,0,1-8.92-3.7,16,16,0,0,1-5.18-11.56c0-5.53,2.33-8.39,3.73-9.62a11.52,11.52,0,0,1,7.31-2.81m1.5-1.06a21,21,0,0,0-10.1,2.55c-2.91,1.72-7.26,5.76-7.26,12.09,0,8.87,8.34,15.29,18.45,15.29a19.94,19.94,0,0,0,9.39-2.81c3.79-2.33,7.57-5.89,7.57-12.44,0-8.7-8.4-14.68-18-14.68m-30.69,8.22c0,3.17-1.36,4.92-3.89,5.85a10.26,10.26,0,0,1-3.43.57,18.1,18.1,0,0,1-3-.09c-.41-.09-.82-.48-.82-.75a79.38,79.38,0,0,1,.46-11,1.25,1.25,0,0,1,.78-.88,8.49,8.49,0,0,1,2.18-.21c3.79,0,7.68,2.1,7.68,6.54m4.45-.3a7,7,0,0,0-3.79-5.9c-2.12-1.14-4.66-1.4-8.14-1.4-2.38,0-6.48.17-7.56.17h-3.22c-.83,0-1.25.13-1.25.35s.26.45,1.25.62c2.43.44,2.91,1.06,3,2.24.11.93.06,1.93.06,11.39,0,6.63-.15,9.49-.26,10.72s-.68,1.67-3,2c-.77.13-1.19.35-1.19.62s.57.44,1.29.44,3.12-.14,5-.14c1.65,0,4,.14,5.18.14.73,0,1.25-.22,1.25-.4s-.26-.48-1.1-.66c-2.33-.48-2.79-1.1-3-2.77-.15-1.85-.15-4.7-.15-9.05a.91.91,0,0,1,.36-.62,6.1,6.1,0,0,1,1.08-.13c2.81,0,3.69.53,5,2.38a68.62,68.62,0,0,0,6.8,8.48,10.25,10.25,0,0,0,8,3.12,9.29,9.29,0,0,0,1.91-.18c.42-.08.58-.22.58-.39s-.21-.36-.78-.4c-2.49-.26-3.63-1.36-5.23-2.94a65.16,65.16,0,0,1-8.31-10.46c-.2-.36-.05-.53,0-.53,3.06-1,6.12-3,6.12-6.72m-54.08-6.91c0,.23.25.4,1.13.58,2.07.39,3.37.56,3.53,3.11.1,1.54.1,3.12.1,9.32s0,8.79-.26,10.59c-.41,2.77-1.5,3.3-4.35,3.78-1,.18-1.3.36-1.3.58s.46.44,1.09.44c1.4,0,3.52-.36,6.12-.36,9.59,0,16.23.14,18.26.27a1.27,1.27,0,0,0,1.24-.88c.16-.4,1.55-4.39,1.55-4.84,0-.22-.1-.83-.41-.83s-.52.22-1,1a9.37,9.37,0,0,1-1.51,2c-1.45,1.76-2.28,1.81-9.28,1.81-4.15,0-4-.14-5.29-1.15-.47-.39-.62-.88-.62-2.55v-8.17c0-.18.15-.66.87-.66,1.67,0,4.94.13,6.07.22,2,.17,2.49,1.19,2.86,2.59.25.83.52,1.1.83,1.1s.47-.27.47-.88a37.5,37.5,0,0,1-.21-3.78c0-1.1.05-2.28.1-3.25.05-.66,0-1.06-.52-1.06-.26,0-.57.49-.67.92-.68,2.25-1.61,2.6-6.54,2.6h-2.84c-.22,0-.42-.31-.42-.75,0-2.9.05-9.23.2-9.89.11-.48.32-.83.63-.83,4.92,0,7.36,0,8.55.13,2.18.18,3.22.75,3.73,2.33.48,1.36.83,1.58.94,1.58a.83.83,0,0,0,.63-.75c0-1.14-.53-4.12-.53-4.44s-.41-.65-.62-.65a57.17,57.17,0,0,1-9.23.52h-6.22c-2,0-4.67-.13-5.66-.13s-1.44.09-1.44.35m-41.45.09c0,.14.32.44,1,.53,2.28.26,2.44,1.19,2.64,2.94a111.09,111.09,0,0,1,.32,11.52c0,3.38.05,8.26-.21,10.15-.21,1.28-1,1.72-2.86,2-.51.09-1,.35-1,.58s.51.48,1.24.48c1.09,0,3.47-.27,4.87-.27,2,0,5,.14,5.6.14s1.09-.14,1.09-.4-.41-.53-.93-.61c-2.91-.57-3-1-3.32-3.91a51.53,51.53,0,0,1-.26-7.88c0-.26.26-.61.46-.61h20.08c.1,0,.36.18.41.71,0,2.94.05,5.66-.1,8.61-.16,2.28-.93,2.59-2.75,2.94-1,.18-1.4.4-1.4.66s.72.44,1.24.44c1.46,0,3.12-.09,5.09-.09,1.81,0,3.94.23,5.19.23.82,0,1.19-.18,1.19-.53,0-.18-.42-.36-.94-.49-1.76-.35-2.49-.83-2.8-2.46-.26-1.36-.52-2.29-.52-9.31,0-7.83,0-11.13.11-12.27.1-1.84.77-2.24,2.33-2.5,1-.18,1.35-.36,1.35-.58s-.31-.43-.94-.43c-1.6,0-3.73.08-5.33.08s-3.27-.08-4.78-.08c-.78,0-1.3.08-1.3.43s.42.36,1.15.49c2.44.44,3.06,1,3.16,3.47,0,2.2,0,5.09,0,8.22a.56.56,0,0,1-.62.53H488.53c-.25,0-.46-.44-.46-.84-.05-6-.05-7.42.1-9.18.16-1.45,1-1.94,2.54-2.15.73-.09,1.09-.32,1.09-.54s-.31-.43-1.19-.43c-1.66,0-4.2.08-5.13.08-1.09,0-3-.08-4.46-.08-.73,0-1.2.08-1.2.39m-26.91-.31c-2,0-3.94,0-5.71-.08a2.93,2.93,0,0,1-2.07-.62c-.42-.35-.57-.53-.88-.53-.1,0-.42.18-.42.31a43.86,43.86,0,0,1-1,5.45c0,.44.1.79.41.79s.52-.26,1-1c.77-1.49,1.24-2.28,3.47-2.59,1.5-.22,7.11-.13,9.23-.13.16,0,.27.3.27.57v5.8c0,5-.37,12.17-.63,15.43-.16,2.15-.47,3.51-4.1,4-.72.08-1.19.26-1.19.61s.52.44,1.29.44c1.2,0,2.8-.18,5.19-.18,2,0,5.86.14,7.31.14,1,0,1.3-.18,1.3-.4s-.31-.48-1-.61c-3.84-.71-3.95-1.15-4-5.1V224.68c0-2.37,0-5.67.1-7.91,0-.18.36-.48.57-.48,4.41,0,9,.17,10.12.3,1.5.18,1.76,1.19,2.13,2.47.26.83.41,1.27.77,1.27.16,0,.42-.18.47-.88a27.06,27.06,0,0,1,.83-5.19c.1-.35-.16-.66-.31-.66s-.36.14-.62.35c-.57.62-2.08.75-9.13.75Zm-26-.84c-5.18,0-9.43,1.06-12.81,3.13-4.05,2.37-7.51,6.9-7.51,11.73a13,13,0,0,0,4.82,10.33c3.37,2.77,8.6,4.79,15.45,4.79a44.28,44.28,0,0,0,6.95-.79c1.19-.21,3.11-.66,4.72-.88.47-.13.73-.26.73-.48s-.26-.35-.52-.48c-1-.44-1-1.54-1-3.92a17.83,17.83,0,0,1,.21-4c.1-.62.21-1,1.19-1.18.47-.14.88-.31.88-.58s.05-.48-.93-.48c-.78,0-3,.17-4.61.17-2,0-3.53-.13-5.3-.17-.72,0-1.34.17-1.34.39s.36.49,1.19.62c3.05.35,4.05.83,4.31,2.11a22.89,22.89,0,0,1,.2,3.34c0,2.29-.41,3.43-1.09,4.09s-2.44,1.14-5.19,1.14c-9.8,0-15.4-6.94-15.4-14.94,0-7.17,4.51-12.75,13.44-12.84a16.4,16.4,0,0,1,7.93,1.72,7.25,7.25,0,0,1,3.06,4c.2.84.41,1.28.78,1.28s.51-.4.46-1.1a31.66,31.66,0,0,1-.2-5.85c.05-.22-.32-.48-.47-.44a9.81,9.81,0,0,1-3.78,0,38.4,38.4,0,0,0-6.13-.62m-33.65,8.27c0,3.17-1.36,4.92-3.9,5.85a10.16,10.16,0,0,1-3.42.57,18,18,0,0,1-3-.09c-.41-.09-.83-.48-.83-.75a77.7,77.7,0,0,1,.47-11,1.25,1.25,0,0,1,.78-.88,8.44,8.44,0,0,1,2.18-.21c3.78,0,7.68,2.1,7.68,6.54m4.45-.3a7,7,0,0,0-3.78-5.9c-2.13-1.14-4.67-1.4-8.14-1.4-2.39,0-6.49.17-7.58.17H375c-.84,0-1.25.13-1.25.35s.26.45,1.25.62c2.44.44,2.9,1.06,3,2.24.11.93.06,1.93.06,11.39,0,6.63-.16,9.49-.27,10.72s-.67,1.67-2.95,2c-.78.13-1.19.35-1.19.62s.57.44,1.3.44,3.11-.14,5-.14c1.67,0,4,.14,5.19.14.73,0,1.25-.22,1.25-.4s-.27-.48-1.09-.66c-2.34-.48-2.8-1.1-3-2.77-.16-1.85-.16-4.7-.16-9.05a.89.89,0,0,1,.37-.62,6,6,0,0,1,1.09-.13c2.8,0,3.68.53,5,2.38a68.62,68.62,0,0,0,6.8,8.48,10.25,10.25,0,0,0,8,3.12,9.48,9.48,0,0,0,1.92-.18c.41-.08.57-.22.57-.39s-.21-.36-.78-.4c-2.49-.26-3.63-1.36-5.24-2.94a64.39,64.39,0,0,1-8.29-10.46c-.21-.36-.05-.53,0-.53,3.06-1,6.11-3,6.11-6.72m-62.8-6.91c0,.31.41.44,1.19.58,2.28.39,2.9,1.36,3,2.85.1,2,.31,7.52.36,11.87.05,6.81,1.61,9.27,4.61,11.34,2.5,1.67,6.75,2.19,9,2.19a16.47,16.47,0,0,0,7.05-1.49c5.14-2.9,5.92-7,6.33-13,.1-1.81.31-7.43.62-10.69.21-2.19.83-2.81,3-3.11.78-.14,1-.23,1-.53s-.79-.35-1.3-.35c-2.13,0-2.13.08-4.1.08-1.24,0-2.75-.08-4.61-.08-.89,0-1.46.08-1.46.43s.57.4,1.3.54c1.35.21,3.16.7,3.58,2.45a19.11,19.11,0,0,1,.31,4.57,69.51,69.51,0,0,1-.62,11.43c-1.2,6-4.57,7.43-9.81,7.43-1.71,0-5.18-.53-7.2-2.2-2.49-2.11-3.43-4.26-3.53-9.32-.11-4-.16-9.22,0-10.81.21-2.68.57-3.16,3.22-3.64.62-.14.93-.35.93-.58s-.36-.3-1-.3c-1.14,0-2.44.08-5.18.08-1.82,0-3.89-.17-5.4-.17-.93,0-1.24.17-1.24.39m-23.44.05a14.56,14.56,0,0,1,14.67,14.55c0,3.51-1.24,7.86-4.09,10.19a11.83,11.83,0,0,1-7.53,2.95,12.64,12.64,0,0,1-8.91-3.7,16,16,0,0,1-5.19-11.56c0-5.53,2.33-8.39,3.73-9.62a11.55,11.55,0,0,1,7.32-2.81m1.5-1.06a21.07,21.07,0,0,0-10.11,2.55c-2.91,1.72-7.26,5.76-7.26,12.09,0,8.87,8.34,15.29,18.46,15.29a20,20,0,0,0,9.39-2.81c3.78-2.33,7.57-5.89,7.57-12.44,0-8.7-8.41-14.68-18-14.68M285.29,235c0,4-3.22,6.94-7.48,6.94a9.41,9.41,0,0,1-4.35-1.45,2,2,0,0,1-.88-1.71c-.16-3.16-.16-7.21-.1-10,0-.26.1-.57.3-.61a7.81,7.81,0,0,1,2.29-.18c5.65,0,10.22,2.55,10.22,7m-2.55-14c0,2.63-1.4,4.44-4.35,5.4a16.15,16.15,0,0,1-4.77.58c-1,0-1.1-.53-1.1-.62-.15-.92.11-8,.11-9.58a1.34,1.34,0,0,1,.62-1.23,5.64,5.64,0,0,1,1.77-.31c3.94,0,7.72,1.67,7.72,5.76m7.11,13.49c0-3.56-2.8-6.37-7.16-7.51-.05,0-.31-.18-.1-.27,2.75-1.1,4.46-3,4.46-5.67a6,6,0,0,0-3.63-5.32A16.86,16.86,0,0,0,276,214.4c-3.16,0-6.22.22-8.09.26l-3.16,0c-.78,0-1.25.18-1.25.49s.68.44,1.35.48c2.28.13,3.11.53,3.32,2.55.21,1.58.16,3.56.16,9.63,0,7.47-.06,9.23-.16,10.59-.16,2.72-.78,3.21-2.7,3.6-.46.09-1.29.31-1.29.57s.41.49,1.14.49c1.29,0,2.54-.14,5.44-.14,2.44,0,4.72,0,5.86,0a16.2,16.2,0,0,0,4.46-.49c4.67-1,8.77-3.25,8.77-8m-65.4-19.56c0,.23.26.4,1.14.58,2.07.39,3.37.56,3.53,3.11.1,1.54.1,3.12.1,9.32s0,8.79-.26,10.59c-.41,2.77-1.51,3.3-4.36,3.78-1,.18-1.29.36-1.29.58s.46.44,1.09.44c1.4,0,3.53-.36,6.12-.36,9.59,0,16.23.14,18.25.27a1.28,1.28,0,0,0,1.25-.88c.15-.4,1.55-4.39,1.55-4.84,0-.22-.1-.83-.41-.83s-.52.22-1,1a9.42,9.42,0,0,1-1.5,2c-1.45,1.76-2.28,1.81-9.28,1.81-4.16,0-4-.14-5.29-1.15-.47-.39-.63-.88-.63-2.55v-8.17c0-.18.16-.66.88-.66,1.67,0,4.93.13,6.07.22,2,.17,2.49,1.19,2.86,2.59.25.83.51,1.1.83,1.1s.46-.27.46-.88c-.1-.92-.21-2.55-.21-3.78s.06-2.28.11-3.25c.05-.66-.05-1.06-.52-1.06-.26,0-.57.49-.67.92-.68,2.25-1.61,2.6-6.54,2.6h-2.85c-.21,0-.42-.31-.42-.75,0-2.9.05-9.23.21-9.89.1-.48.31-.83.62-.83,4.93,0,7.37,0,8.56.13,2.18.18,3.22.75,3.74,2.33.46,1.36.83,1.58.93,1.58a.82.82,0,0,0,.62-.75c0-1.14-.52-4.12-.52-4.44s-.41-.65-.62-.65a57.29,57.29,0,0,1-9.23.52h-6.22c-2,0-4.67-.13-5.66-.13s-1.45.09-1.45.35m-24.48.31a15.27,15.27,0,0,1,11.26,4.35,14.64,14.64,0,0,1,4.15,9.23c0,5.93-2.6,10.51-7.79,12.53a17.62,17.62,0,0,1-6.22,1.23,12.18,12.18,0,0,1-5.18-1.23,2.7,2.7,0,0,1-1.51-2.15,53.49,53.49,0,0,1-.57-9.24v-5.58c0-4.35.1-5.58.16-6.68.1-1.45.46-1.63.77-1.8a13.76,13.76,0,0,1,4.93-.66m.83-.92c-4.05,0-7.47.39-10.22.39h-3.52c-.84,0-1.25.18-1.25.49s.47.4,1.25.52c1.86.35,2.43.88,2.54,2.38.1,1.18.26,4.13.26,10.59,0,4.48,0,7.47-.06,10.28-.05,2.38-.93,2.64-3.58,3.08-.77.13-1.19.22-1.19.53s.47.48,1.3.48,2.39-.09,4.1-.09c3,0,6.43.49,9.59.49a28,28,0,0,0,7.94-.93c6.74-1.93,12.5-7,12.5-14.28a13.06,13.06,0,0,0-6.8-11.12c-4-2.33-8.56-2.81-12.86-2.81m-53.68.66c0,.39.62.57,1.24.66,2.75.35,3.27,1.32,3.32,2.94s.06,3.69.06,9.85c0,3.82-.06,8.48-.21,10.67s-1.09,2.47-3.89,2.95c-.83.13-1.09.39-1.09.57s.42.49,1.19.49c1.35,0,3.84-.14,5.92-.14,3.06,0,10.94.14,16.49.14,1.3,0,1.71-.26,1.82-.44.25-.88,1.65-4.53,1.65-5.15s-.05-.87-.36-.87-.78.74-1,1.23C171,240,169.74,241,168,241.25a54.74,54.74,0,0,1-9,0c-2.28-.18-2.7-.71-2.85-2.69-.11-1.36-.26-3-.26-7.51,0-9.8.15-12,.26-13.32s.88-1.71,2.9-2.1c.78-.14,1.09-.27,1.09-.58,0-.09-.21-.39-1.09-.39-1.66,0-3.78.08-6,.08s-3.84-.08-4.93-.08c-.68,0-1,.13-1,.35m-29.82-.05c0,.23.26.4,1.14.58,2.08.39,3.37.56,3.53,3.11.1,1.54.1,3.12.1,9.32s0,8.79-.26,10.59c-.41,2.77-1.5,3.3-4.35,3.78-1,.18-1.3.36-1.3.58s.46.44,1.09.44c1.4,0,3.52-.36,6.12-.36,9.59,0,16.23.14,18.25.27a1.28,1.28,0,0,0,1.25-.88c.16-.4,1.56-4.39,1.56-4.84,0-.22-.11-.83-.42-.83s-.52.22-1,1a9.72,9.72,0,0,1-1.51,2c-1.45,1.76-2.28,1.81-9.28,1.81-4.15,0-4.05-.14-5.29-1.15-.47-.39-.63-.88-.63-2.55v-8.17c0-.18.16-.66.89-.66,1.66,0,4.92.13,6.06.22,2,.17,2.49,1.19,2.86,2.59.26.83.52,1.1.83,1.1s.47-.27.47-.88a37.28,37.28,0,0,1-.22-3.78c0-1.1.06-2.28.11-3.25.05-.66,0-1.06-.52-1.06-.26,0-.57.49-.67.92-.68,2.25-1.61,2.6-6.54,2.6h-2.85c-.21,0-.42-.31-.42-.75,0-2.9.06-9.23.21-9.89.1-.48.31-.83.62-.83,4.93,0,7.37,0,8.56.13,2.18.18,3.22.75,3.74,2.33.46,1.36.83,1.58.93,1.58a.82.82,0,0,0,.62-.75c0-1.14-.52-4.12-.52-4.44s-.41-.65-.62-.65a57.29,57.29,0,0,1-9.23.52H124.4c-2,0-4.66-.13-5.65-.13s-1.45.09-1.45.35m-26.4-.22c-2,0-3.94,0-5.7-.08a3,3,0,0,1-2.08-.62c-.41-.35-.57-.53-.88-.53-.1,0-.41.18-.41.31a45.33,45.33,0,0,1-1,5.45c0,.44.11.79.41.79s.52-.26,1-1c.78-1.49,1.25-2.28,3.48-2.59,1.5-.22,7.1-.13,9.23-.13.15,0,.26.3.26.57v5.8c0,5-.36,12.17-.63,15.43-.15,2.15-.46,3.51-4.09,4-.73.08-1.2.26-1.2.61s.52.44,1.3.44c1.19,0,2.8-.18,5.19-.18,2,0,5.86.14,7.31.14,1,0,1.3-.18,1.3-.4s-.31-.48-1-.61c-3.84-.71-3.94-1.15-4-5.1V224.68c0-2.37,0-5.67.1-7.91,0-.18.36-.48.57-.48,4.41,0,9,.17,10.11.3,1.51.18,1.77,1.19,2.13,2.47.26.83.42,1.27.78,1.27.15,0,.41-.18.47-.88a26.31,26.31,0,0,1,.83-5.19c.1-.35-.16-.66-.32-.66s-.36.14-.62.35c-.57.62-2.07.75-9.13.75ZM59.11,215a14.56,14.56,0,0,1,14.68,14.55c0,3.51-1.25,7.86-4.1,10.19a11.83,11.83,0,0,1-7.52,2.95,12.66,12.66,0,0,1-8.92-3.7,16,16,0,0,1-5.19-11.56c0-5.53,2.34-8.39,3.74-9.62A11.5,11.5,0,0,1,59.11,215m1.5-1.06a21.1,21.1,0,0,0-10.11,2.55c-2.91,1.72-7.26,5.76-7.26,12.09,0,8.87,8.35,15.29,18.46,15.29A20,20,0,0,0,71.09,241c3.79-2.33,7.57-5.89,7.57-12.44,0-8.7-8.4-14.68-18-14.68M.66,215c0,.14.31.44,1,.53,2.28.26,2.44,1.19,2.65,2.94.15,1.5.3,3.78.3,11.52,0,3.38.06,8.26-.2,10.15-.21,1.28-1,1.72-2.85,2-.52.09-1,.35-1,.58s.52.48,1.24.48c1.09,0,3.48-.27,4.88-.27,2,0,5,.14,5.6.14s1.09-.14,1.09-.4-.41-.53-.93-.61c-2.91-.57-3-1-3.32-3.91a50.28,50.28,0,0,1-.26-7.88c0-.26.26-.61.47-.61H29.45c.1,0,.36.18.41.71,0,2.94.05,5.66-.1,8.61-.16,2.28-.94,2.59-2.75,2.94-1,.18-1.4.4-1.4.66s.73.44,1.24.44c1.45,0,3.12-.09,5.09-.09,1.81,0,3.94.23,5.18.23.83,0,1.19-.18,1.19-.53,0-.18-.41-.36-.93-.49-1.76-.35-2.49-.83-2.8-2.46-.26-1.36-.52-2.29-.52-9.31,0-7.83,0-11.13.1-12.27.11-1.84.78-2.24,2.34-2.5,1-.18,1.35-.36,1.35-.58s-.31-.43-.94-.43c-1.6,0-3.73.08-5.34.08-1.45,0-3.27-.08-4.77-.08-.78,0-1.3.08-1.3.43s.42.36,1.15.49c2.43.44,3.05,1,3.16,3.47.05,2.2.05,5.09.05,8.22a.56.56,0,0,1-.62.53H9.38c-.26,0-.47-.44-.47-.84-.05-6-.05-7.42.1-9.18.16-1.45,1-1.94,2.54-2.15.73-.09,1.09-.32,1.09-.54s-.31-.43-1.19-.43c-1.66,0-4.2.08-5.14.08s-3-.08-4.46-.08c-.72,0-1.19.08-1.19.39" fill="#231f20"/></g></g></svg>
